<svg id="Layer_1" data-name="Layer 1" xmlns="http://www.w3.org/2000/svg" viewBox="0 0 822.74 705.2">
	<defs>
		<style>
			.cls-1 {
				fill: #6b7280;
			}
		</style>
	</defs>
	<title>hat-outline3</title>
	<path class="cls-1"
		d="M411.8,443.75c-45.65,0-87.52-2.82-127.43-8.55-40.08-5.79-80.71-16-124.22-31.26l-3.3-1a99.47,99.47,0,0,1-11.61-4.18c-10.13-4.12-18.32-15.42-19-27.09-1.62-20.95-3.19-42.38-4.75-63.8l-3.25-44.11Q112.73,188.3,107,113c-.7-9.07-1.39-18.23-1.79-27.31-1.57-36.88,25.95-68.56,64-73.74,19.6-2.72,39.38-4.13,58.52-5.48l4.23-.3C291.12,1.66,350.09.64,405.43,0h.8L448,.71c36.77.58,74.79,1.17,112.27,2.58,30.27,1.17,59.93,4.22,92.79,7.78,30.78,3.38,53.44,20.35,63.83,47.79a66.51,66.51,0,0,1,4.16,28c-2,29.84-4.19,59.58-6.38,89.34L702,351.78c-.46,7-.93,13.92-1.65,20.84l-.41,2.62A33.13,33.13,0,0,1,682.73,398l-3.56,1.55c-38.54,13.37-84.55,28-133.55,35.19a893.29,893.29,0,0,1-115.12,8.88Q421.05,443.74,411.8,443.75ZM177.73,354.3c40.32,14.1,77.6,23.5,114.15,28.77,42.48,6.11,87.53,8.67,137.89,7.86a841,841,0,0,0,108.32-8.35c39.38-5.76,77.58-17.15,110.93-28.4.13-2,.27-3.93.39-5.89l12.76-175.91c2.18-29.65,4.36-59.29,6.36-89a14.57,14.57,0,0,0-.89-6c-2.3-6-6.52-12.51-20.27-14C615.54,60,586.84,57,558.29,55.92c-36.88-1.39-74.61-2-111.1-2.56l-41.52-.7c-54.37.65-112.24,1.64-169.77,6l-4.38.31c-18.27,1.3-37.15,2.63-55.08,5.13-11,1.49-19,9.78-18.58,19.28.38,8.48,1,17.08,1.69,25.58q5.72,75.47,11.22,150.86L174,304Q175.83,329.15,177.73,354.3Zm1,12.94.06.81Q178.75,367.68,178.72,367.24Zm-12.67-16.89.87.37C166.64,350.59,166.34,350.47,166.05,350.35Z"
		transform="translate(-2.05)" />
	<path class="cls-1"
		d="M406.58,705.2h-1.71c-79.63-1.47-149.4-13.49-213.31-36.77C143,650.71,101.51,624.7,68.2,591.1c-29.85-30.21-49.34-61.7-59.6-96.3-4.13-14.21-9.11-35.61-5-58.82,4.51-25.64,21-47,44.11-57.2,22.51-9.9,47.67-7.78,69,5.83,6.13,3.91,12.5,7.5,18.87,11.1,5.09,2.87,10.18,5.75,15.16,8.74,8.73,5.74,14.21,14,15.9,23.26l.36,2.91c1.15,16.79,2.12,33.67,3,50.55,14.4,15.52,32.38,28.73,55.05,40.48,40.18,21,85.68,33.45,139.15,38.21,60,5.35,114.12,1.71,165.43-11.11,44.18-11,79.77-27.58,108.82-50.78,4.39-3.51,8.8-7.77,13.47-12.28l4.89-4.68c0-.26.06-.62.08-1.1.61-17.12,1.73-33.94,2.85-49.55l.19-1.77A33.65,33.65,0,0,1,675,405c13.76-8.26,26.74-15.82,39.9-23.2a71.66,71.66,0,0,1,63.43-3.43,75.34,75.34,0,0,1,43.53,50.72c5.15,19.74,2.57,38-.25,51.73-7,34.44-24,66.55-51.74,98.11-37.36,42.16-84.24,72.41-143.39,92.57C560.27,694.18,488.32,705.2,406.58,705.2Zm-1-52.66h1c75.85,0,142.21-10.1,202.85-30.86,50.31-17.14,89.86-42.52,121-77.6,21.78-24.76,34.39-48.24,39.62-73.82,2.52-12.26,2.78-20.56.9-27.8a23.07,23.07,0,0,0-13.14-15.6,19.12,19.12,0,0,0-17.12.89c-9.79,5.48-19.46,11.06-29.1,16.75-.84,12.46-1.58,24.92-2,37.38-.58,15-5.95,27.39-16,36.85l-5.07,4.86c-5.33,5.14-10.84,10.47-17.16,15.51-35.11,28.06-77.3,47.93-129,60.76-57.08,14.25-116.9,18.32-182.83,12.46-60.49-5.39-112.42-19.76-158.78-44-28.55-14.81-51.52-31.91-70.15-52.25a49.71,49.71,0,0,1-13.18-32.22c-.67-12.86-1.41-26-2.26-39.24-1.78-1-3.63-2.06-5.48-3.1-7.18-4.06-14.36-8.13-21.27-12.54-8.15-5.19-15.11-4-19.52-2-7,3.07-12,9.84-13.45,18.12-1.68,9.56-.54,20.31,3.69,34.86,7.7,26,22.92,50.23,46.51,74.1,28.16,28.42,62.18,49.64,104,64.89C267.87,640.18,332,651.16,405.61,652.54ZM170,481.7h0Zm-.72-1.29s0,0,0,0S169.31,480.43,169.31,480.41Z"
		transform="translate(-2.05)" />
</svg>