<svg width="28" height="28" viewBox="0 0 28 28" fill="none" xmlns="http://www.w3.org/2000/svg">
  <rect width="28" height="28" rx="6" fill="#3B99FC" />
  <path
    d="M8.38969 10.3739C11.4882 7.27543 16.5118 7.27543 19.6103 10.3739L19.9832 10.7468C20.1382 10.9018 20.1382 11.1529 19.9832 11.3079L18.7076 12.5835C18.6301 12.661 18.5045 12.661 18.4271 12.5835L17.9139 12.0703C15.7523 9.90875 12.2477 9.90875 10.0861 12.0703L9.53655 12.6199C9.45909 12.6974 9.3335 12.6974 9.25604 12.6199L7.98039 11.3442C7.82547 11.1893 7.82547 10.9381 7.98039 10.7832L8.38969 10.3739ZM22.2485 13.0121L23.3838 14.1474C23.5387 14.3023 23.5387 14.5535 23.3838 14.7084L18.2645 19.8278C18.1096 19.9827 17.8584 19.9827 17.7035 19.8278C17.7035 19.8278 17.7035 19.8278 17.7035 19.8278L14.0702 16.1944C14.0314 16.1557 13.9686 16.1557 13.9299 16.1944C13.9299 16.1944 13.9299 16.1944 13.9299 16.1944L10.2966 19.8278C10.1417 19.9827 9.89053 19.9827 9.73561 19.8278C9.7356 19.8278 9.7356 19.8278 9.7356 19.8278L4.61619 14.7084C4.46127 14.5535 4.46127 14.3023 4.61619 14.1474L5.75152 13.012C5.90645 12.8571 6.15763 12.8571 6.31255 13.012L9.94595 16.6454C9.98468 16.6842 10.0475 16.6842 10.0862 16.6454C10.0862 16.6454 10.0862 16.6454 10.0862 16.6454L13.7194 13.012C13.8743 12.8571 14.1255 12.8571 14.2805 13.012C14.2805 13.012 14.2805 13.012 14.2805 13.012L17.9139 16.6454C17.9526 16.6842 18.0154 16.6842 18.0541 16.6454L21.6874 13.0121C21.8424 12.8572 22.0936 12.8572 22.2485 13.0121Z"
    fill="white" />
</svg>